<svg width="34" height="34" viewBox="0 0 34 34" fill="none" xmlns="http://www.w3.org/2000/svg">
<path d="M13.9236 7.08333L11.0903 9.91667H5.66667V26.9167H28.3333V9.91667H22.9098L20.0764 7.08333H13.9236ZM12.75 4.25H21.25L24.0833 7.08333H29.75C30.5324 7.08333 31.1667 7.7176 31.1667 8.5V28.3333C31.1667 29.1158 30.5324 29.75 29.75 29.75H4.25C3.46761 29.75 2.83334 29.1158 2.83334 28.3333V8.5C2.83334 7.7176 3.46761 7.08333 4.25 7.08333H9.91667L12.75 4.25ZM17 25.5C12.6968 25.5 9.20834 22.0116 9.20834 17.7083C9.20834 13.4051 12.6968 9.91667 17 9.91667C21.3033 9.91667 24.7917 13.4051 24.7917 17.7083C24.7917 22.0116 21.3033 25.5 17 25.5ZM17 22.6667C19.7384 22.6667 21.9583 20.4467 21.9583 17.7083C21.9583 14.9699 19.7384 12.75 17 12.75C14.2616 12.75 12.0417 14.9699 12.0417 17.7083C12.0417 20.4467 14.2616 22.6667 17 22.6667Z" fill="#7B7B7B"/>
</svg>
