<svg width="27" height="33" viewBox="0 0 27 33" fill="#FF6E05" xmlns="http://www.w3.org/2000/svg">
<mask id="path-1-inside-1_512_539" fill="white">
<path fill-rule="evenodd" clip-rule="evenodd" d="M22.0264 24.0473C25.1029 21.5762 27 17.7674 27 13.4916C27 6.03571 21.232 0 13.5 0C5.76801 0 0 6.03571 0 13.4916C0 17.7674 1.89705 21.5762 4.97366 24.0473L13.5 33L22.0264 24.0473Z"/>
</mask>
<path fill-rule="evenodd" clip-rule="evenodd" d="M22.0264 24.0473C25.1029 21.5762 27 17.7674 27 13.4916C27 6.03571 21.232 0 13.5 0C5.76801 0 0 6.03571 0 13.4916C0 17.7674 1.89705 21.5762 4.97366 24.0473L13.5 33L22.0264 24.0473Z" fill="#FF6E05"/>
<path d="M22.0264 24.0473L20.7739 22.488L20.67 22.5715L20.5781 22.668L22.0264 24.0473ZM4.97366 24.0473L6.42193 22.668L6.33001 22.5715L6.22609 22.488L4.97366 24.0473ZM13.5 33L12.0517 34.3793L13.5 35.9L14.9483 34.3793L13.5 33ZM25 13.4916C25 17.1639 23.3758 20.3982 20.7739 22.488L23.2788 25.6066C26.8301 22.7542 29 18.3709 29 13.4916H25ZM13.5 2C20.1023 2 25 7.11499 25 13.4916H29C29 4.95642 22.3617 -2 13.5 -2V2ZM2 13.4916C2 7.11499 6.89769 2 13.5 2V-2C4.63832 -2 -2 4.95642 -2 13.4916H2ZM6.22609 22.488C3.6242 20.3982 2 17.1639 2 13.4916H-2C-2 18.3709 0.169906 22.7542 3.72122 25.6066L6.22609 22.488ZM3.52538 25.4267L12.0517 34.3793L14.9483 31.6207L6.42193 22.668L3.52538 25.4267ZM14.9483 34.3793L23.4746 25.4266L20.5781 22.668L12.0517 31.6207L14.9483 34.3793Z" fill="#FF6E05" mask="url(#path-1-inside-1_512_539)"/>
<path d="M18.5 14C18.5 16.7614 16.2614 19 13.5 19C10.7386 19 8.5 16.7614 8.5 14C8.5 11.2386 10.7386 9 13.5 9C16.2614 9 18.5 11.2386 18.5 14Z" fill="white" stroke="#FF6E05" stroke-width="2"/>
</svg>
