<svg width="20" height="21" viewBox="0 0 20 21" fill="none" xmlns="http://www.w3.org/2000/svg">
<path d="M6 1.5C6 0.947715 5.55228 0.5 5 0.5C4.44772 0.5 4 0.947715 4 1.5V2.5C4 2.50686 4.00042 2.51285 4.00081 2.51843C4.00385 2.56193 4.00516 2.58063 3.79289 2.79289L3.77277 2.81298C3.50599 3.07912 3 3.58391 3 4.5V5.5C3 6.05228 3.44772 6.5 4 6.5C4.55228 6.5 5 6.05228 5 5.5V4.5C5 4.49314 4.99958 4.48715 4.99919 4.48157C4.99615 4.43807 4.99484 4.41937 5.20711 4.20711L5.22723 4.18702C5.49401 3.92088 6 3.41609 6 2.5V1.5ZM0 9C0 8.44771 0.44772 8 1 8H19C19.5523 8 20 8.44772 20 9V10C20 14.1006 17.5318 17.6248 14 19.1679V20C14 20.5523 13.5523 21 13 21H7C6.44772 21 6 20.5523 6 20V19.1679C2.46819 17.6248 0 14.1006 0 10V9ZM16 0.5C16.5523 0.5 17 0.947715 17 1.5V2.5C17 3.41609 16.494 3.92088 16.2272 4.18702L16.2071 4.20711C15.9948 4.41937 15.9962 4.43807 15.9992 4.48157C15.9996 4.48715 16 4.49314 16 4.5V5.5C16 6.05228 15.5523 6.5 15 6.5C14.4477 6.5 14 6.05228 14 5.5V4.5C14 3.58391 14.506 3.07912 14.7728 2.81298L14.7929 2.79289C15.0052 2.58063 15.0038 2.56193 15.0008 2.51843C15.0004 2.51285 15 2.50686 15 2.5V1.5C15 0.947715 15.4477 0.5 16 0.5ZM11.5 1.5C11.5 0.947715 11.0523 0.5 10.5 0.5C9.9477 0.5 9.5 0.947715 9.5 1.5V2.5C9.5 2.50686 9.5004 2.51285 9.5008 2.51843C9.5038 2.56193 9.5052 2.58063 9.2929 2.79289L9.2728 2.81298C9.006 3.07912 8.5 3.58391 8.5 4.5V5.5C8.5 6.05228 8.9477 6.5 9.5 6.5C10.0523 6.5 10.5 6.05228 10.5 5.5V4.5C10.5 4.49314 10.4996 4.48715 10.4992 4.48157C10.4962 4.43807 10.4948 4.41937 10.7071 4.20711L10.7272 4.18702C10.994 3.92088 11.5 3.41609 11.5 2.5V1.5Z" fill="#242424"/>
</svg>
