<svg width="100" height="50" viewBox="0 0 100 50" fill="none" xmlns="http://www.w3.org/2000/svg">
<path d="M75.0017 35.4168L62.7562 42.8964L66.0855 28.9389L55.188 19.604L69.4912 18.4573L75.0017 5.2085L80.5121 18.4573L94.8154 19.604L83.9179 28.9389L87.2473 42.8964L75.0017 35.4168ZM75.0017 30.5343L80.8698 34.1187L79.2744 27.4302L84.4965 22.9568L77.6423 22.4072L75.0017 16.0583L72.3611 22.4072L65.5068 22.9568L70.729 27.4302L69.1335 34.1187L75.0017 30.5343Z" fill="#7B7B7B"/>
<path d="M25.0017 35.4168L12.7562 42.8964L16.0855 28.9389L5.18799 19.604L19.4912 18.4573L25.0017 5.2085L30.5121 18.4573L44.8154 19.604L33.9179 28.9389L37.2473 42.8964L25.0017 35.4168Z" fill="#FFD600"/>
<path d="M25.0017 35.4168L12.7562 42.8964L16.0855 28.9389L5.18799 19.604L19.4912 18.4573L25.0017 5.2085L30.5121 18.4573L44.8154 19.604L33.9179 28.9389L37.2473 42.8964L25.0017 35.4168Z" fill="#FFD600"/>
</svg>
