<svg width="29" height="27" viewBox="0 0 29 27" fill="none" xmlns="http://www.w3.org/2000/svg">
<path d="M7.35294 11.9342V24.4304C7.35294 24.8447 7.18561 25.242 6.88776 25.535C6.58991 25.8279 6.18593 25.9925 5.76471 25.9925H2.58824C2.16701 25.9925 1.76304 25.8279 1.46518 25.535C1.16733 25.242 1 24.8447 1 24.4304V13.4962C1 13.082 1.16733 12.6847 1.46518 12.3917C1.76304 12.0988 2.16701 11.9342 2.58824 11.9342H7.35294ZM7.35294 11.9342C9.03785 11.9342 10.6537 11.2759 11.8451 10.1042C13.0366 8.93243 13.7059 7.34319 13.7059 5.68609V4.12406C13.7059 3.29551 14.0405 2.50089 14.6362 1.91502C15.232 1.32914 16.0399 1 16.8824 1C17.7248 1 18.5328 1.32914 19.1285 1.91502C19.7242 2.50089 20.0588 3.29551 20.0588 4.12406V11.9342H24.8235C25.666 11.9342 26.4739 12.2634 27.0696 12.8492C27.6653 13.4351 28 14.2297 28 15.0583L26.4118 22.8684C26.1834 23.8267 25.7501 24.6495 25.1772 25.213C24.6042 25.7764 23.9227 26.05 23.2353 25.9925H12.1176C10.854 25.9925 9.64205 25.4988 8.74849 24.62C7.85494 23.7411 7.35294 22.5492 7.35294 21.3064" stroke="#6B82FF" stroke-linecap="round" stroke-linejoin="round"/>
</svg>
