<svg xmlns="http://www.w3.org/2000/svg" xmlns:xlink="http://www.w3.org/1999/xlink" width="398" zoomAndPan="magnify" viewBox="0 0 298.5 112.499997" height="150" preserveAspectRatio="xMidYMid meet" version="1.0"><defs><g/><clipPath id="494f5474a9"><path d="M 0.410156 0 L 297.589844 0 L 297.589844 112.003906 L 0.410156 112.003906 Z M 0.410156 0 " clip-rule="nonzero"/></clipPath><linearGradient x1="0" gradientTransform="matrix(0.746681, 0, 0, 0.746681, 0.411509, 0)" y1="75" x2="397.999968" gradientUnits="userSpaceOnUse" y2="75" id="1c67642306"><stop stop-opacity="1" stop-color="rgb(100%, 96.899414%, 67.799377%)" offset="0"/><stop stop-opacity="1" stop-color="rgb(100%, 96.77887%, 67.915344%)" offset="0.0078125"/><stop stop-opacity="1" stop-color="rgb(100%, 96.540833%, 68.147278%)" offset="0.015625"/><stop stop-opacity="1" stop-color="rgb(100%, 96.30127%, 68.380737%)" offset="0.0234375"/><stop stop-opacity="1" stop-color="rgb(100%, 96.061707%, 68.614197%)" offset="0.03125"/><stop stop-opacity="1" stop-color="rgb(100%, 95.823669%, 68.84613%)" offset="0.0390625"/><stop stop-opacity="1" stop-color="rgb(100%, 95.584106%, 69.07959%)" offset="0.046875"/><stop stop-opacity="1" stop-color="rgb(100%, 95.344543%, 69.311523%)" offset="0.0546875"/><stop stop-opacity="1" stop-color="rgb(100%, 95.106506%, 69.544983%)" offset="0.0625"/><stop stop-opacity="1" stop-color="rgb(100%, 94.866943%, 69.778442%)" offset="0.0703125"/><stop stop-opacity="1" stop-color="rgb(100%, 94.62738%, 70.010376%)" offset="0.078125"/><stop stop-opacity="1" stop-color="rgb(100%, 94.387817%, 70.243835%)" offset="0.0859375"/><stop stop-opacity="1" stop-color="rgb(100%, 94.14978%, 70.475769%)" offset="0.09375"/><stop stop-opacity="1" stop-color="rgb(100%, 93.910217%, 70.709229%)" offset="0.101562"/><stop stop-opacity="1" stop-color="rgb(100%, 93.670654%, 70.941162%)" offset="0.109375"/><stop stop-opacity="1" stop-color="rgb(100%, 93.432617%, 71.174622%)" offset="0.117188"/><stop stop-opacity="1" stop-color="rgb(100%, 93.193054%, 71.408081%)" offset="0.125"/><stop stop-opacity="1" stop-color="rgb(100%, 92.953491%, 71.640015%)" offset="0.132812"/><stop stop-opacity="1" stop-color="rgb(100%, 92.715454%, 71.873474%)" offset="0.140625"/><stop stop-opacity="1" stop-color="rgb(100%, 92.475891%, 72.105408%)" offset="0.148438"/><stop stop-opacity="1" stop-color="rgb(100%, 92.236328%, 72.338867%)" offset="0.15625"/><stop stop-opacity="1" stop-color="rgb(100%, 91.998291%, 72.570801%)" offset="0.164062"/><stop stop-opacity="1" stop-color="rgb(100%, 91.758728%, 72.80426%)" offset="0.171875"/><stop stop-opacity="1" stop-color="rgb(100%, 91.519165%, 73.03772%)" offset="0.179688"/><stop stop-opacity="1" stop-color="rgb(100%, 91.281128%, 73.269653%)" offset="0.1875"/><stop stop-opacity="1" stop-color="rgb(100%, 91.041565%, 73.503113%)" offset="0.195313"/><stop stop-opacity="1" stop-color="rgb(100%, 90.802002%, 73.735046%)" offset="0.203125"/><stop stop-opacity="1" stop-color="rgb(100%, 90.563965%, 73.968506%)" offset="0.210937"/><stop stop-opacity="1" stop-color="rgb(100%, 90.324402%, 74.200439%)" offset="0.21875"/><stop stop-opacity="1" stop-color="rgb(100%, 90.084839%, 74.433899%)" offset="0.226562"/><stop stop-opacity="1" stop-color="rgb(100%, 89.846802%, 74.667358%)" offset="0.234375"/><stop stop-opacity="1" stop-color="rgb(100%, 89.607239%, 74.899292%)" offset="0.242188"/><stop stop-opacity="1" stop-color="rgb(100%, 89.367676%, 75.132751%)" offset="0.25"/><stop stop-opacity="1" stop-color="rgb(100%, 89.129639%, 75.364685%)" offset="0.257812"/><stop stop-opacity="1" stop-color="rgb(100%, 88.890076%, 75.598145%)" offset="0.265625"/><stop stop-opacity="1" stop-color="rgb(100%, 88.650513%, 75.830078%)" offset="0.273438"/><stop stop-opacity="1" stop-color="rgb(100%, 88.412476%, 76.063538%)" offset="0.28125"/><stop stop-opacity="1" stop-color="rgb(100%, 88.172913%, 76.296997%)" offset="0.289062"/><stop stop-opacity="1" stop-color="rgb(100%, 87.93335%, 76.528931%)" offset="0.296875"/><stop stop-opacity="1" stop-color="rgb(100%, 87.695312%, 76.76239%)" offset="0.304688"/><stop stop-opacity="1" stop-color="rgb(100%, 87.45575%, 76.994324%)" offset="0.3125"/><stop stop-opacity="1" stop-color="rgb(100%, 87.216187%, 77.227783%)" offset="0.320312"/><stop stop-opacity="1" stop-color="rgb(100%, 86.978149%, 77.461243%)" offset="0.328125"/><stop stop-opacity="1" stop-color="rgb(100%, 86.738586%, 77.693176%)" offset="0.335937"/><stop stop-opacity="1" stop-color="rgb(100%, 86.499023%, 77.926636%)" offset="0.34375"/><stop stop-opacity="1" stop-color="rgb(100%, 86.260986%, 78.158569%)" offset="0.351562"/><stop stop-opacity="1" stop-color="rgb(100%, 86.021423%, 78.392029%)" offset="0.359375"/><stop stop-opacity="1" stop-color="rgb(100%, 85.78186%, 78.623962%)" offset="0.367188"/><stop stop-opacity="1" stop-color="rgb(100%, 85.543823%, 78.857422%)" offset="0.375"/><stop stop-opacity="1" stop-color="rgb(100%, 85.30426%, 79.090881%)" offset="0.382812"/><stop stop-opacity="1" stop-color="rgb(100%, 85.064697%, 79.322815%)" offset="0.390625"/><stop stop-opacity="1" stop-color="rgb(100%, 84.82666%, 79.556274%)" offset="0.398438"/><stop stop-opacity="1" stop-color="rgb(100%, 84.587097%, 79.788208%)" offset="0.40625"/><stop stop-opacity="1" stop-color="rgb(100%, 84.347534%, 80.021667%)" offset="0.414062"/><stop stop-opacity="1" stop-color="rgb(100%, 84.109497%, 80.253601%)" offset="0.421875"/><stop stop-opacity="1" stop-color="rgb(100%, 83.869934%, 80.487061%)" offset="0.429687"/><stop stop-opacity="1" stop-color="rgb(100%, 83.630371%, 80.72052%)" offset="0.4375"/><stop stop-opacity="1" stop-color="rgb(100%, 83.392334%, 80.952454%)" offset="0.445312"/><stop stop-opacity="1" stop-color="rgb(100%, 83.152771%, 81.185913%)" offset="0.453125"/><stop stop-opacity="1" stop-color="rgb(100%, 82.913208%, 81.417847%)" offset="0.460938"/><stop stop-opacity="1" stop-color="rgb(100%, 82.675171%, 81.651306%)" offset="0.46875"/><stop stop-opacity="1" stop-color="rgb(100%, 82.435608%, 81.88324%)" offset="0.476562"/><stop stop-opacity="1" stop-color="rgb(100%, 82.196045%, 82.116699%)" offset="0.484375"/><stop stop-opacity="1" stop-color="rgb(100%, 81.958008%, 82.350159%)" offset="0.492188"/><stop stop-opacity="1" stop-color="rgb(100%, 81.718445%, 82.582092%)" offset="0.5"/><stop stop-opacity="1" stop-color="rgb(100%, 81.478882%, 82.815552%)" offset="0.507812"/><stop stop-opacity="1" stop-color="rgb(100%, 81.240845%, 83.047485%)" offset="0.515625"/><stop stop-opacity="1" stop-color="rgb(100%, 81.001282%, 83.280945%)" offset="0.523438"/><stop stop-opacity="1" stop-color="rgb(100%, 80.761719%, 83.512878%)" offset="0.53125"/><stop stop-opacity="1" stop-color="rgb(100%, 80.523682%, 83.746338%)" offset="0.539062"/><stop stop-opacity="1" stop-color="rgb(100%, 80.284119%, 83.979797%)" offset="0.546875"/><stop stop-opacity="1" stop-color="rgb(100%, 80.044556%, 84.211731%)" offset="0.554688"/><stop stop-opacity="1" stop-color="rgb(100%, 79.806519%, 84.44519%)" offset="0.5625"/><stop stop-opacity="1" stop-color="rgb(100%, 79.566956%, 84.677124%)" offset="0.570312"/><stop stop-opacity="1" stop-color="rgb(100%, 79.327393%, 84.910583%)" offset="0.578125"/><stop stop-opacity="1" stop-color="rgb(100%, 79.08783%, 85.144043%)" offset="0.585938"/><stop stop-opacity="1" stop-color="rgb(100%, 78.849792%, 85.375977%)" offset="0.59375"/><stop stop-opacity="1" stop-color="rgb(100%, 78.610229%, 85.609436%)" offset="0.601563"/><stop stop-opacity="1" stop-color="rgb(100%, 78.370667%, 85.84137%)" offset="0.609375"/><stop stop-opacity="1" stop-color="rgb(100%, 78.132629%, 86.074829%)" offset="0.617188"/><stop stop-opacity="1" stop-color="rgb(100%, 77.893066%, 86.306763%)" offset="0.625"/><stop stop-opacity="1" stop-color="rgb(100%, 77.653503%, 86.540222%)" offset="0.632812"/><stop stop-opacity="1" stop-color="rgb(100%, 77.415466%, 86.773682%)" offset="0.640625"/><stop stop-opacity="1" stop-color="rgb(100%, 77.175903%, 87.005615%)" offset="0.648437"/><stop stop-opacity="1" stop-color="rgb(100%, 76.93634%, 87.239075%)" offset="0.65625"/><stop stop-opacity="1" stop-color="rgb(100%, 76.698303%, 87.471008%)" offset="0.664062"/><stop stop-opacity="1" stop-color="rgb(100%, 76.45874%, 87.704468%)" offset="0.671875"/><stop stop-opacity="1" stop-color="rgb(100%, 76.219177%, 87.936401%)" offset="0.679687"/><stop stop-opacity="1" stop-color="rgb(100%, 75.98114%, 88.169861%)" offset="0.6875"/><stop stop-opacity="1" stop-color="rgb(100%, 75.741577%, 88.40332%)" offset="0.695312"/><stop stop-opacity="1" stop-color="rgb(100%, 75.502014%, 88.635254%)" offset="0.703125"/><stop stop-opacity="1" stop-color="rgb(100%, 75.263977%, 88.868713%)" offset="0.710938"/><stop stop-opacity="1" stop-color="rgb(100%, 75.024414%, 89.100647%)" offset="0.71875"/><stop stop-opacity="1" stop-color="rgb(100%, 74.784851%, 89.334106%)" offset="0.726562"/><stop stop-opacity="1" stop-color="rgb(100%, 74.546814%, 89.56604%)" offset="0.734375"/><stop stop-opacity="1" stop-color="rgb(100%, 74.307251%, 89.7995%)" offset="0.742188"/><stop stop-opacity="1" stop-color="rgb(100%, 74.067688%, 90.032959%)" offset="0.75"/><stop stop-opacity="1" stop-color="rgb(100%, 73.829651%, 90.264893%)" offset="0.757812"/><stop stop-opacity="1" stop-color="rgb(100%, 73.590088%, 90.498352%)" offset="0.765625"/><stop stop-opacity="1" stop-color="rgb(100%, 73.350525%, 90.730286%)" offset="0.773438"/><stop stop-opacity="1" stop-color="rgb(100%, 73.112488%, 90.963745%)" offset="0.78125"/><stop stop-opacity="1" stop-color="rgb(100%, 72.872925%, 91.197205%)" offset="0.789063"/><stop stop-opacity="1" stop-color="rgb(100%, 72.633362%, 91.429138%)" offset="0.796875"/><stop stop-opacity="1" stop-color="rgb(100%, 72.395325%, 91.662598%)" offset="0.804688"/><stop stop-opacity="1" stop-color="rgb(100%, 72.155762%, 91.894531%)" offset="0.8125"/><stop stop-opacity="1" stop-color="rgb(100%, 71.916199%, 92.127991%)" offset="0.820312"/><stop stop-opacity="1" stop-color="rgb(100%, 71.678162%, 92.359924%)" offset="0.828125"/><stop stop-opacity="1" stop-color="rgb(100%, 71.438599%, 92.593384%)" offset="0.835937"/><stop stop-opacity="1" stop-color="rgb(100%, 71.199036%, 92.826843%)" offset="0.84375"/><stop stop-opacity="1" stop-color="rgb(100%, 70.960999%, 93.058777%)" offset="0.851562"/><stop stop-opacity="1" stop-color="rgb(100%, 70.721436%, 93.292236%)" offset="0.859375"/><stop stop-opacity="1" stop-color="rgb(100%, 70.481873%, 93.52417%)" offset="0.867188"/><stop stop-opacity="1" stop-color="rgb(100%, 70.243835%, 93.757629%)" offset="0.875"/><stop stop-opacity="1" stop-color="rgb(100%, 70.004272%, 93.989563%)" offset="0.882812"/><stop stop-opacity="1" stop-color="rgb(100%, 69.764709%, 94.223022%)" offset="0.890625"/><stop stop-opacity="1" stop-color="rgb(100%, 69.526672%, 94.456482%)" offset="0.898438"/><stop stop-opacity="1" stop-color="rgb(100%, 69.287109%, 94.688416%)" offset="0.90625"/><stop stop-opacity="1" stop-color="rgb(100%, 69.047546%, 94.921875%)" offset="0.914062"/><stop stop-opacity="1" stop-color="rgb(100%, 68.809509%, 95.153809%)" offset="0.921875"/><stop stop-opacity="1" stop-color="rgb(100%, 68.569946%, 95.387268%)" offset="0.929688"/><stop stop-opacity="1" stop-color="rgb(100%, 68.330383%, 95.619202%)" offset="0.9375"/><stop stop-opacity="1" stop-color="rgb(100%, 68.092346%, 95.852661%)" offset="0.945312"/><stop stop-opacity="1" stop-color="rgb(100%, 67.852783%, 96.086121%)" offset="0.953125"/><stop stop-opacity="1" stop-color="rgb(100%, 67.61322%, 96.318054%)" offset="0.960938"/><stop stop-opacity="1" stop-color="rgb(100%, 67.375183%, 96.551514%)" offset="0.96875"/><stop stop-opacity="1" stop-color="rgb(100%, 67.13562%, 96.783447%)" offset="0.976563"/><stop stop-opacity="1" stop-color="rgb(100%, 66.896057%, 97.016907%)" offset="0.984375"/><stop stop-opacity="1" stop-color="rgb(100%, 66.65802%, 97.24884%)" offset="0.992188"/><stop stop-opacity="1" stop-color="rgb(100%, 66.418457%, 97.4823%)" offset="1"/></linearGradient></defs><g clip-path="url(#494f5474a9)"><path fill="#ffffff" d="M 0.410156 0 L 297.589844 0 L 297.589844 112.003906 L 0.410156 112.003906 Z M 0.410156 0 " fill-opacity="1" fill-rule="nonzero"/><path fill="url(#1c67642306)" d="M 0.410156 0 L 0.410156 112.003906 L 297.589844 112.003906 L 297.589844 0 Z M 0.410156 0 " fill-rule="nonzero"/></g><g fill="#000000" fill-opacity="1"><g transform="translate(80.985699, 60.790924)"><g><path d="M 8.25 0.253906 L 8.277344 0.253906 C 10.015625 0.253906 12.261719 -0.410156 13.488281 -2.683594 L 13.179688 -2.683594 C 11.570312 -0.203125 9.628906 -0.078125 8.53125 -0.078125 C 5.824219 -0.078125 4.828125 -3.039062 4.828125 -7.128906 C 4.828125 -10.550781 5.570312 -14.152344 8.457031 -14.152344 C 9.734375 -14.152344 10.78125 -13.257812 10.472656 -11.570312 C 10.320312 -10.703125 9.503906 -10.601562 9.503906 -10.601562 C 9.503906 -9.476562 10.371094 -8.480469 11.726562 -8.480469 C 12.796875 -8.480469 13.617188 -9.195312 13.617188 -10.292969 C 13.617188 -12.492188 10.832031 -14.484375 8.328125 -14.484375 C 4.035156 -14.484375 0.636719 -11.164062 0.636719 -7.101562 C 0.636719 -3.039062 4.035156 0.253906 8.25 0.253906 Z M 8.25 0.253906 "/></g></g></g><g fill="#000000" fill-opacity="1"><g transform="translate(95.240235, 60.790924)"><g><path d="M 6.285156 0.253906 C 9.402344 0.253906 11.929688 -2.171875 11.929688 -5.210938 C 11.929688 -8.226562 9.402344 -10.652344 6.285156 -10.652344 C 3.167969 -10.652344 0.636719 -8.226562 0.636719 -5.210938 C 0.636719 -2.171875 3.167969 0.253906 6.285156 0.253906 Z M 6.285156 0 C 4.878906 0 4.367188 -2.246094 4.367188 -5.210938 C 4.367188 -8.175781 4.878906 -10.421875 6.285156 -10.421875 C 7.613281 -10.421875 8.199219 -8.175781 8.199219 -5.210938 C 8.199219 -2.246094 7.714844 0 6.285156 0 Z M 6.285156 0 "/></g></g></g><g fill="#000000" fill-opacity="1"><g transform="translate(107.808731, 60.790924)"><g><path d="M 1.277344 0 L 5.007812 0 L 5.007812 -8.046875 C 5.3125 -8.480469 6.027344 -9.222656 6.234375 -9.402344 C 7.179688 -10.21875 8.125 -10.066406 8.125 -8.660156 L 8.125 0 L 11.851562 0 L 11.851562 -8.429688 C 12.183594 -8.839844 12.621094 -9.273438 12.773438 -9.402344 C 13.71875 -10.21875 14.664062 -10.066406 14.664062 -8.660156 L 14.664062 0 L 18.394531 0 L 18.394531 -8.582031 C 18.394531 -9.734375 17.21875 -10.832031 15.457031 -10.832031 C 13.921875 -10.832031 12.644531 -9.757812 11.828125 -8.8125 C 11.675781 -9.886719 10.550781 -10.832031 8.914062 -10.832031 C 7.203125 -10.832031 5.773438 -9.476562 5.007812 -8.480469 L 5.007812 -10.421875 L 1.277344 -10.421875 Z M 1.277344 0 "/></g></g></g><g fill="#000000" fill-opacity="1"><g transform="translate(127.478951, 60.790924)"><g><path d="M 3.269531 -11.828125 C 4.394531 -11.828125 5.289062 -12.722656 5.289062 -13.847656 C 5.289062 -14.945312 4.394531 -15.839844 3.269531 -15.839844 C 2.171875 -15.839844 1.277344 -14.945312 1.277344 -13.847656 C 1.277344 -12.722656 2.171875 -11.828125 3.269531 -11.828125 Z M 1.40625 0 L 5.132812 0 L 5.132812 -10.398438 L 1.40625 -10.421875 Z M 1.40625 0 "/></g></g></g><g fill="#000000" fill-opacity="1"><g transform="translate(134.044218, 60.790924)"><g><path d="M 1.277344 0 L 5.007812 0 L 5.007812 -8.046875 C 5.3125 -8.480469 6.027344 -9.222656 6.234375 -9.402344 C 7.179688 -10.21875 8.125 -10.066406 8.125 -8.660156 L 8.125 0 L 11.851562 0 L 11.851562 -8.582031 C 11.851562 -9.734375 10.679688 -10.832031 8.914062 -10.832031 C 7.203125 -10.832031 5.773438 -9.476562 5.007812 -8.480469 L 5.007812 -10.421875 L 1.277344 -10.421875 Z M 1.277344 0 "/></g></g></g><g fill="#000000" fill-opacity="1"><g transform="translate(147.174728, 60.790924)"><g><path d="M 5.875 4.445312 C 9.835938 4.316406 12.183594 1.890625 12.183594 -0.0507812 C 12.183594 -2.734375 10.140625 -3.320312 7.613281 -3.320312 C 6.488281 -3.320312 5.339844 -3.21875 3.5 -3.21875 C 2.757812 -3.21875 2.503906 -3.398438 2.503906 -3.78125 C 2.503906 -4.164062 2.9375 -4.597656 3.5 -4.90625 C 4.265625 -4.574219 5.238281 -4.417969 6.308594 -4.417969 C 9.195312 -4.417969 11.265625 -5.800781 11.265625 -7.484375 C 11.265625 -9.171875 9.425781 -10.5 6.742188 -10.679688 C 6.742188 -10.984375 7.074219 -11.851562 8.226562 -11.851562 C 9.757812 -11.851562 9.757812 -10.679688 9.757812 -10.679688 C 10.191406 -10.679688 11.265625 -11.367188 11.265625 -12.542969 C 11.265625 -13.539062 10.191406 -14.304688 9.070312 -14.304688 C 6.464844 -14.304688 6.488281 -11.34375 6.539062 -10.679688 L 6.308594 -10.679688 C 3.371094 -10.679688 1.304688 -9.246094 1.304688 -7.484375 C 1.304688 -6.566406 2.09375 -5.621094 3.21875 -5.03125 C 2.734375 -4.699219 0.664062 -3.398438 0.664062 -1.839844 C 0.664062 -1.023438 1.304688 0 3.066406 0 C 6.796875 0 10.292969 0.128906 10.292969 1.558594 C 10.292969 3.550781 7.410156 4.191406 5.925781 4.191406 C 4.574219 4.191406 3.039062 3.679688 3.039062 2.527344 C 3.039062 1.558594 3.882812 1.839844 3.882812 1.839844 C 3.882812 1.839844 3.523438 0.230469 2.195312 0.230469 C 1.046875 0.230469 0.636719 1.097656 0.636719 1.761719 C 0.636719 2.171875 0.765625 4.597656 5.875 4.445312 Z M 6.308594 -4.675781 C 4.957031 -4.675781 4.496094 -5.824219 4.496094 -7.484375 C 4.496094 -9.222656 4.957031 -10.421875 6.308594 -10.421875 C 7.511719 -10.421875 8.074219 -9.222656 8.074219 -7.484375 C 8.074219 -5.824219 7.585938 -4.675781 6.308594 -4.675781 Z M 6.308594 -4.675781 "/></g></g></g><g fill="#000000" fill-opacity="1"><g transform="translate(165.184464, 60.790924)"><g><path d="M 6.898438 0.253906 C 10.242188 0.253906 13.15625 -1.507812 12.746094 -4.699219 C 12.390625 -8.480469 4.136719 -8.761719 4.136719 -12.238281 C 4.136719 -13.617188 5.3125 -14.152344 6.667969 -14.152344 C 8.175781 -14.152344 9.171875 -13.515625 9.171875 -12.492188 C 9.171875 -11.214844 8.300781 -11.113281 8.300781 -11.113281 C 8.300781 -10.21875 9.019531 -9.402344 10.117188 -9.402344 C 10.984375 -9.402344 11.648438 -9.960938 11.648438 -10.855469 C 11.648438 -13.15625 9.195312 -14.511719 6.617188 -14.511719 C 3.449219 -14.511719 0.765625 -13.078125 1.125 -9.886719 C 1.582031 -5.722656 9.734375 -5.210938 9.734375 -1.992188 C 9.734375 -0.433594 7.816406 -0.078125 6.742188 -0.078125 C 5.339844 -0.078125 3.679688 -0.691406 3.679688 -2.171875 C 3.679688 -2.300781 3.679688 -2.425781 3.703125 -2.582031 C 3.832031 -3.371094 4.597656 -3.472656 4.597656 -3.472656 C 4.597656 -4.523438 3.78125 -5.441406 2.527344 -5.441406 C 1.53125 -5.441406 0.765625 -4.777344 0.765625 -3.753906 C 0.765625 -1.25 3.753906 0.253906 6.898438 0.253906 Z M 6.898438 0.253906 "/></g></g></g><g fill="#000000" fill-opacity="1"><g transform="translate(178.749256, 60.790924)"><g><path d="M 6.285156 0.253906 C 9.402344 0.253906 11.929688 -2.171875 11.929688 -5.210938 C 11.929688 -8.226562 9.402344 -10.652344 6.285156 -10.652344 C 3.167969 -10.652344 0.636719 -8.226562 0.636719 -5.210938 C 0.636719 -2.171875 3.167969 0.253906 6.285156 0.253906 Z M 6.285156 0 C 4.878906 0 4.367188 -2.246094 4.367188 -5.210938 C 4.367188 -8.175781 4.878906 -10.421875 6.285156 -10.421875 C 7.613281 -10.421875 8.199219 -8.175781 8.199219 -5.210938 C 8.199219 -2.246094 7.714844 0 6.285156 0 Z M 6.285156 0 "/></g></g></g><g fill="#000000" fill-opacity="1"><g transform="translate(191.317752, 60.790924)"><g><path d="M 6.285156 0.253906 C 9.402344 0.253906 11.929688 -2.171875 11.929688 -5.210938 C 11.929688 -8.226562 9.402344 -10.652344 6.285156 -10.652344 C 3.167969 -10.652344 0.636719 -8.226562 0.636719 -5.210938 C 0.636719 -2.171875 3.167969 0.253906 6.285156 0.253906 Z M 6.285156 0 C 4.878906 0 4.367188 -2.246094 4.367188 -5.210938 C 4.367188 -8.175781 4.878906 -10.421875 6.285156 -10.421875 C 7.613281 -10.421875 8.199219 -8.175781 8.199219 -5.210938 C 8.199219 -2.246094 7.714844 0 6.285156 0 Z M 6.285156 0 "/></g></g></g><g fill="#000000" fill-opacity="1"><g transform="translate(203.886248, 60.790924)"><g><path d="M 1.277344 0 L 5.007812 0 L 5.007812 -8.046875 C 5.3125 -8.480469 6.027344 -9.222656 6.234375 -9.402344 C 7.179688 -10.21875 8.125 -10.066406 8.125 -8.660156 L 8.125 0 L 11.851562 0 L 11.851562 -8.582031 C 11.851562 -9.734375 10.679688 -10.832031 8.914062 -10.832031 C 7.203125 -10.832031 5.773438 -9.476562 5.007812 -8.480469 L 5.007812 -10.421875 L 1.277344 -10.421875 Z M 1.277344 0 "/></g></g></g></svg>