<svg width="628" height="202" viewBox="0 0 628 202" fill="none" xmlns="http://www.w3.org/2000/svg">
<path d="M199.261 65.7812H171.549V175.394H199.261V65.7812Z" fill="#FFA360"/>
<path d="M194.734 57.9216H176.076V103.989H194.734V57.9216Z" fill="#FFA360"/>
<path d="M190.577 52.9385H180.226V78.4875H190.577V52.9385Z" fill="#FFA360"/>
<path d="M188.931 66.0673H181.873V48.6506H184.417H186.942H188.931V66.0673Z" fill="#FFA360"/>
<path d="M184.939 58.4875H184.17V41.0708H184.452H184.719H184.939V58.4875Z" fill="#FFA360"/>
<path d="M186.633 52.4682H185.865V35.0515H186.139H186.414H186.633V52.4682Z" fill="#FFA360"/>
<path d="M199.995 65.5017H170.808V66.6683H199.995V65.5017Z" fill="#FFA360"/>
<path d="M195.406 57.3625H175.39V58.4882H195.406V57.3625Z" fill="#FFA360"/>
<path d="M191.009 52.4683H179.472V53.3278H191.009V52.4683Z" fill="#FFA360"/>
<path opacity="0.29" d="M178.655 59.7893H177.791V64.6155H178.655V59.7893Z" fill="#FFA360"/>
<path opacity="0.29" d="M181.056 59.7893H180.192V64.6155H181.056V59.7893Z" fill="#FFA360"/>
<path opacity="0.29" d="M183.45 59.7893H182.586V64.6155H183.45V59.7893Z" fill="#FFA360"/>
<path opacity="0.29" d="M185.851 59.7893H184.987V64.6155H185.851V59.7893Z" fill="#FFA360"/>
<path opacity="0.29" d="M188.252 59.7893H187.388V64.6155H188.252V59.7893Z" fill="#FFA360"/>
<path opacity="0.29" d="M190.652 59.7893H189.788V64.6155H190.652V59.7893Z" fill="#FFA360"/>
<path opacity="0.29" d="M193.053 59.7893H192.189V64.6155H193.053V59.7893Z" fill="#FFA360"/>
<path d="M176.076 70.1509H173.977V75.8769H176.076V70.1509Z" fill="#FFA360"/>
<path opacity="0.29" d="M180.226 70.1509H178.127V75.8769H180.226V70.1509Z" fill="#FFA360"/>
<path d="M184.376 70.1509H182.277V75.8769H184.376V70.1509Z" fill="#FFA360"/>
<path d="M188.526 70.1509H186.427V75.8769H188.526V70.1509Z" fill="#FFA360"/>
<path d="M192.669 70.1509H190.577V75.8769H192.669V70.1509Z" fill="#FFA360"/>
<path d="M196.819 70.1509H194.727V75.8769H196.819V70.1509Z" fill="#FFA360"/>
<path d="M176.076 79.0806H173.977V84.8066H176.076V79.0806Z" fill="#FFA360"/>
<path d="M180.226 79.0806H178.127V84.8066H180.226V79.0806Z" fill="#FFA360"/>
<path d="M184.376 79.0806H182.277V84.8066H184.376V79.0806Z" fill="#FFA360"/>
<path opacity="0.29" d="M188.526 79.0806H186.427V84.8066H188.526V79.0806Z" fill="#FFA360"/>
<path d="M192.669 79.0806H190.577V84.8066H192.669V79.0806Z" fill="#FFA360"/>
<path d="M196.819 79.0806H194.727V84.8066H196.819V79.0806Z" fill="#FFA360"/>
<path d="M176.076 88.0037H173.977V93.7297H176.076V88.0037Z" fill="#FFA360"/>
<path d="M180.226 88.0037H178.127V93.7297H180.226V88.0037Z" fill="#FFA360"/>
<path d="M184.376 88.0037H182.277V93.7297H184.376V88.0037Z" fill="#FFA360"/>
<path d="M188.526 88.0037H186.427V93.7297H188.526V88.0037Z" fill="#FFA360"/>
<path opacity="0.29" d="M192.669 88.0037H190.577V93.7297H192.669V88.0037Z" fill="#FFA360"/>
<path opacity="0.29" d="M196.819 88.0037H194.727V93.7297H196.819V88.0037Z" fill="#FFA360"/>
<path opacity="0.29" d="M176.076 96.9268H173.977V102.653H176.076V96.9268Z" fill="#FFA360"/>
<path d="M180.226 96.9268H178.127V102.653H180.226V96.9268Z" fill="#FFA360"/>
<path d="M184.376 96.9268H182.277V102.653H184.376V96.9268Z" fill="#FFA360"/>
<path d="M188.526 96.9268H186.427V102.653H188.526V96.9268Z" fill="#FFA360"/>
<path d="M192.669 96.9268H190.577V102.653H192.669V96.9268Z" fill="#FFA360"/>
<path d="M196.819 96.9268H194.727V102.653H196.819V96.9268Z" fill="#FFA360"/>
<path d="M176.076 105.857H173.977V111.583H176.076V105.857Z" fill="#FFA360"/>
<path opacity="0.29" d="M180.226 105.857H178.127V111.583H180.226V105.857Z" fill="#FFA360"/>
<path d="M184.376 105.857H182.277V111.583H184.376V105.857Z" fill="#FFA360"/>
<path opacity="0.29" d="M188.526 105.857H186.427V111.583H188.526V105.857Z" fill="#FFA360"/>
<path d="M192.669 105.857H190.577V111.583H192.669V105.857Z" fill="#FFA360"/>
<path d="M196.819 105.857H194.727V111.583H196.819V105.857Z" fill="#FFA360"/>
<path d="M176.076 114.78H173.977V120.506H176.076V114.78Z" fill="#FFA360"/>
<path d="M180.226 114.78H178.127V120.506H180.226V114.78Z" fill="#FFA360"/>
<path d="M184.376 114.78H182.277V120.506H184.376V114.78Z" fill="#FFA360"/>
<path d="M188.526 114.78H186.427V120.506H188.526V114.78Z" fill="#FFA360"/>
<path d="M192.669 114.78H190.577V120.506H192.669V114.78Z" fill="#FFA360"/>
<path opacity="0.29" d="M196.819 114.78H194.727V120.506H196.819V114.78Z" fill="#FFA360"/>
<path d="M176.076 123.71H173.977V129.436H176.076V123.71Z" fill="#FFA360"/>
<path opacity="0.29" d="M180.226 123.71H178.127V129.436H180.226V123.71Z" fill="#FFA360"/>
<path opacity="0.29" d="M184.376 123.71H182.277V129.436H184.376V123.71Z" fill="#FFA360"/>
<path d="M188.526 123.71H186.427V129.436H188.526V123.71Z" fill="#FFA360"/>
<path d="M192.669 123.71H190.577V129.436H192.669V123.71Z" fill="#FFA360"/>
<path d="M196.819 123.71H194.727V129.436H196.819V123.71Z" fill="#FFA360"/>
<path d="M176.076 132.633H173.977V138.359H176.076V132.633Z" fill="#FFA360"/>
<path d="M180.226 132.633H178.127V138.359H180.226V132.633Z" fill="#FFA360"/>
<path d="M184.376 132.633H182.277V138.359H184.376V132.633Z" fill="#FFA360"/>
<path d="M188.526 132.633H186.427V138.359H188.526V132.633Z" fill="#FFA360"/>
<path opacity="0.29" d="M192.669 132.633H190.577V138.359H192.669V132.633Z" fill="#FFA360"/>
<path d="M196.819 132.633H194.727V138.359H196.819V132.633Z" fill="#FFA360"/>
<path d="M176.076 141.563H173.977V147.289H176.076V141.563Z" fill="#FFA360"/>
<path opacity="0.29" d="M180.226 141.563H178.127V147.289H180.226V141.563Z" fill="#FFA360"/>
<path d="M184.376 141.563H182.277V147.289H184.376V141.563Z" fill="#FFA360"/>
<path d="M188.526 141.563H186.427V147.289H188.526V141.563Z" fill="#FFA360"/>
<path d="M192.669 141.563H190.577V147.289H192.669V141.563Z" fill="#FFA360"/>
<path d="M196.819 141.563H194.727V147.289H196.819V141.563Z" fill="#FFA360"/>
<path d="M176.076 150.486H173.977V156.212H176.076V150.486Z" fill="#FFA360"/>
<path d="M180.226 150.486H178.127V156.212H180.226V150.486Z" fill="#FFA360"/>
<path d="M184.376 150.486H182.277V156.212H184.376V150.486Z" fill="#FFA360"/>
<path opacity="0.29" d="M188.526 150.486H186.427V156.212H188.526V150.486Z" fill="#FFA360"/>
<path d="M192.669 150.486H190.577V156.212H192.669V150.486Z" fill="#FFA360"/>
<path opacity="0.29" d="M196.819 150.486H194.727V156.212H196.819V150.486Z" fill="#FFA360"/>
<path opacity="0.29" d="M176.076 159.416H173.977V165.142H176.076V159.416Z" fill="#FFA360"/>
<path d="M180.226 159.416H178.127V165.142H180.226V159.416Z" fill="#FFA360"/>
<path opacity="0.29" d="M184.376 159.416H182.277V165.142H184.376V159.416Z" fill="#FFA360"/>
<path d="M188.526 159.416H186.427V165.142H188.526V159.416Z" fill="#FFA360"/>
<path d="M192.669 159.416H190.577V165.142H192.669V159.416Z" fill="#FFA360"/>
<path d="M196.819 159.416H194.727V165.142H196.819V159.416Z" fill="#FFA360"/>
<path d="M135.612 69.9529H91.0664V162.292H135.612V69.9529Z" fill="#FFA360"/>
<path d="M136.874 68.3647H89.7974V70.9756H136.874V68.3647Z" fill="#FFA360"/>
<path d="M134.116 65.0244H92.5615V77.4308H134.116V65.0244Z" fill="#FFA360"/>
<path d="M112.201 59.946H95.7446V73.4977H112.201V59.946Z" fill="#FFA360"/>
<path d="M105.266 63.7636H95.7446V56.6333H102.57L105.266 63.7636Z" fill="#FFA360"/>
<path d="M100.505 50.7095H99.5791V66.5992H100.505V50.7095Z" fill="#FFA360"/>
<path d="M100.868 49.8846C100.868 50.3414 100.498 50.7095 100.038 50.7095C99.5789 50.7095 99.2085 50.3414 99.2085 49.8846C99.2085 49.4279 99.5789 49.0598 100.038 49.0598C100.498 49.0598 100.868 49.4279 100.868 49.8846Z" fill="#FFA360"/>
<path d="M504.509 169.321H455.745L449.66 33.552L504.509 44.8678V169.321Z" fill="#FFA360"/>
<path d="M291.761 91.7871V46.3946H284.113V34.2404H281.383V16.4078H266.326V3.29929H264.989V16.4078H262.039V0H260.702V16.4078H251.188V46.3946H246.269V91.7871H242.058V174.46H294.725V91.7871H291.761Z" fill="#FFA360"/>
<path d="M611.428 167.637H28.8032V181.406H611.428V167.637Z" fill="#FFA360"/>
<path d="M371.757 178.032H345.958L356.008 126.696H371.757V178.032Z" fill="#FFB885"/>
<path d="M619.632 180.036H7.90234V201.747H619.632V180.036Z" fill="#FFB885"/>
<path d="M350.616 83.0276V60.2802H342.33V51.6162H337.899V44.3428H336.341V31.8682H335.944V44.3428H334.387V51.6162H329.955V60.2802H321.731V83.0276H320.023V124.337H307.278V171.42H320.023H332.768H352.262V83.0276H350.616Z" fill="#FFB885"/>
<path d="M398.221 109.163H358.127V109.885H359.938V177.262H396.41V109.885H398.221V109.163Z" fill="#FFB885"/>
<path d="M215.388 125.946H179.835V182.074H215.388V125.946Z" fill="#FFB885"/>
<path d="M174.478 154.705H113.339V182.074H174.478V154.705Z" fill="#FFB885"/>
<path d="M159.531 93.5525H146.107V160.765H159.531V93.5525Z" fill="#FFB885"/>
<path d="M149.77 75.6248H149.071V112.176H149.77V75.6248Z" fill="#FFB885"/>
<path d="M152.041 78.3923H151.341V114.944H152.041V78.3923Z" fill="#FFB885"/>
<path d="M155.347 89.3945H147.143V98.3994H155.347V89.3945Z" fill="#FFB885"/>
<path d="M195.441 135.993H172.084V182.074H195.441V135.993Z" fill="#FFB885"/>
<path d="M264.989 87.2336H221.144V182.075H264.989V87.2336Z" fill="#FFB885"/>
<path d="M260.681 83.9683H225.451V99.7626H260.681V83.9683Z" fill="#FFB885"/>
<path d="M268.392 89.217H217.748V90.329H268.392V89.217Z" fill="#FFB885"/>
<path d="M233.861 134.174H213.2V182.068H233.861V134.174Z" fill="#FFB885"/>
<path d="M88.9334 132.353H65.2271V182.068H88.9334V132.353Z" fill="#FFB885"/>
<path d="M120.137 118.843H72.896V182.068H120.137V118.843Z" fill="#FFB885"/>
<path d="M121.352 116.416H70.1387V118.843H121.352V116.416Z" fill="#FFB885"/>
<path d="M95.7451 109.838H74.9883V122.66H95.7451V109.838Z" fill="#FFB885"/>
<path d="M106.014 109.838H102.529V117.636H106.014V109.838Z" fill="#FFB885"/>
<path d="M113.34 109.838H109.505V117.636H113.34V109.838Z" fill="#FFB885"/>
<path d="M77.0801 162.844H52.3242V182.074H77.0801V162.844Z" fill="#FFB885"/>
<path d="M54.698 154.705H42.9751V182.074H54.698V154.705Z" fill="#FFB885"/>
<path d="M48.8329 172.456H28.8032V182.068H48.8329V172.456Z" fill="#FFB885"/>
<path d="M507.52 160.765H260.682V182.074H507.52V160.765Z" fill="#FFB885"/>
<path d="M487.813 101.787C486.256 101.787 484.987 102.973 484.856 104.487L481.385 104.378C481.392 104.037 481.399 103.703 481.399 103.362C481.399 99.0674 480.651 94.8819 479.225 90.9623L482.126 89.8989C482.579 90.9418 483.628 91.678 484.849 91.678C486.489 91.678 487.813 90.3556 487.813 88.7332C487.813 87.1108 486.482 85.7884 484.849 85.7884C483.217 85.7884 481.886 87.1108 481.886 88.7332C481.886 89.0332 481.934 89.3263 482.016 89.5989L479.115 90.6623C477.462 86.2587 474.937 82.1824 471.638 78.6581L473.908 76.5449C474.443 77.0494 475.164 77.3629 475.959 77.3629C477.599 77.3629 478.923 76.0405 478.923 74.4181C478.923 72.7957 477.592 71.4733 475.959 71.4733C474.327 71.4733 472.996 72.7957 472.996 74.4181C472.996 75.1407 473.257 75.8019 473.689 76.3132L471.418 78.4263C471.185 78.1809 470.945 77.9355 470.705 77.697C467.268 74.2818 463.263 71.6301 458.907 69.8236L460.155 66.8038C460.436 66.8925 460.738 66.9402 461.054 66.9402C462.693 66.9402 464.017 65.6177 464.017 63.9953C464.017 62.373 462.686 61.0505 461.054 61.0505C459.421 61.0505 458.09 62.373 458.09 63.9953C458.09 65.1951 458.811 66.2312 459.853 66.688L458.605 69.7009C454.702 68.1331 450.524 67.2333 446.217 67.0833L446.354 62.9524C446.354 62.9524 446.416 62.9524 446.45 62.9524C448.089 62.9524 449.413 61.6299 449.413 60.0076C449.413 58.3852 448.082 57.0627 446.45 57.0627C444.817 57.0627 443.487 58.3852 443.487 60.0076C443.487 61.4936 444.591 62.7206 446.031 62.9251L445.894 67.0765C445.551 67.0697 445.215 67.0629 444.872 67.0629C440.722 67.0629 436.682 67.7445 432.868 69.0602L431.675 65.6859C432.751 65.2428 433.513 64.193 433.513 62.9592C433.513 61.33 432.182 60.0144 430.55 60.0144C428.917 60.0144 427.586 61.3368 427.586 62.9592C427.586 64.5816 428.917 65.904 430.55 65.904C430.831 65.904 431.105 65.8631 431.366 65.7881L432.559 69.1624C427.943 70.7984 423.676 73.3683 420 76.7631L417.832 74.4658C418.319 73.9409 418.614 73.2388 418.614 72.4753C418.614 70.8461 417.283 69.5305 415.651 69.5305C414.018 69.5305 412.687 70.853 412.687 72.4753C412.687 74.0977 414.018 75.4202 415.651 75.4202C416.398 75.4202 417.078 75.1475 417.599 74.6908L419.76 76.988C419.513 77.2198 419.266 77.4584 419.026 77.697C415.966 80.7372 413.517 84.2206 411.741 88.0038L408.983 86.7427C409.086 86.4496 409.141 86.1292 409.141 85.802C409.141 84.1728 407.81 82.8572 406.178 82.8572C404.545 82.8572 403.215 84.1797 403.215 85.802C403.215 87.4244 404.545 88.7469 406.178 88.7469C407.371 88.7469 408.393 88.0515 408.867 87.0427L411.604 88.2969C409.635 92.571 408.524 97.22 408.352 102.039L404.82 101.924C404.778 100.335 403.468 99.0606 401.856 99.0606C400.244 99.0606 398.893 100.383 398.893 102.005C398.893 103.628 400.224 104.95 401.856 104.95C403.489 104.95 404.682 103.764 404.813 102.251L408.345 102.367C408.339 102.707 408.332 103.042 408.332 103.382C408.332 107.677 409.079 111.862 410.506 115.782L407.605 116.845C407.152 115.802 406.102 115.066 404.881 115.066C403.242 115.066 401.918 116.389 401.918 118.011C401.918 119.633 403.249 120.956 404.881 120.956C406.514 120.956 407.845 119.633 407.845 118.011C407.845 117.711 407.797 117.418 407.714 117.145L410.616 116.082C412.269 120.492 414.793 124.562 418.093 128.086L415.822 130.199C415.287 129.695 414.567 129.381 413.771 129.381C412.132 129.381 410.808 130.704 410.808 132.326C410.808 133.949 412.139 135.271 413.771 135.271C415.404 135.271 416.735 133.949 416.735 132.326C416.735 131.604 416.474 130.942 416.042 130.431L418.312 128.318C418.546 128.563 418.786 128.809 419.026 129.047C421.344 131.351 423.916 133.301 426.681 134.882L408.798 167.644H405.588V168.577H404.017V170.438H485.741V168.577H484.17V167.644H480.96L463.077 134.882C465.458 133.519 467.701 131.876 469.758 129.981L472.66 133.056C472.036 133.594 471.645 134.392 471.645 135.278C471.645 136.907 472.976 138.223 474.608 138.223C476.241 138.223 477.571 136.9 477.571 135.278C477.571 133.655 476.241 132.333 474.608 132.333C473.977 132.333 473.401 132.531 472.921 132.858L469.999 129.763C470.245 129.531 470.492 129.293 470.732 129.054C473.792 126.014 476.241 122.531 478.017 118.747L481.248 120.226C481.186 120.458 481.159 120.697 481.159 120.949C481.159 122.578 482.49 123.894 484.122 123.894C485.755 123.894 487.086 122.571 487.086 120.949C487.086 119.327 485.755 118.004 484.122 118.004C482.853 118.004 481.769 118.802 481.344 119.913L478.154 118.447C480.123 114.173 481.234 109.524 481.406 104.705L484.884 104.814C484.925 106.402 486.235 107.684 487.847 107.684C489.459 107.684 490.81 106.361 490.81 104.739C490.81 103.116 489.479 101.794 487.847 101.794L487.813 101.787ZM480.411 103.362C480.411 103.689 480.411 104.016 480.398 104.344L470.163 104.016C470.163 103.798 470.17 103.58 470.17 103.362C470.17 100.363 469.642 97.4859 468.668 94.8205L478.292 91.2963C479.684 95.1137 480.411 99.1832 480.411 103.362ZM469.669 104.003L446.841 103.266C446.834 103.116 446.807 102.973 446.772 102.837L468.208 94.991C469.162 97.6086 469.683 100.424 469.683 103.362C469.683 103.573 469.683 103.785 469.676 104.003H469.669ZM420.027 102.728L442.856 103.464C442.862 103.614 442.89 103.757 442.924 103.894L421.488 111.74C420.535 109.122 420.013 106.307 420.013 103.369C420.013 103.157 420.013 102.946 420.02 102.728H420.027ZM446.409 102.135L463.064 86.62C465.224 88.9377 466.946 91.6712 468.085 94.6842L446.649 102.523C446.58 102.38 446.498 102.251 446.402 102.128L446.409 102.135ZM446.182 101.896C446.052 101.78 445.908 101.678 445.75 101.603L454.427 80.6077C457.624 81.9438 460.484 83.9206 462.837 86.3883L446.182 101.903V101.896ZM445.448 101.474C445.332 101.433 445.201 101.412 445.078 101.392L445.819 78.7058C448.748 78.8149 451.54 79.4352 454.126 80.4714L445.448 101.467V101.474ZM444.749 101.385C444.612 101.392 444.474 101.412 444.344 101.446L436.751 80.0419C439.289 79.1694 442.012 78.6922 444.852 78.6922C445.064 78.6922 445.277 78.6922 445.496 78.699L444.756 101.385H444.749ZM444.035 101.555C443.884 101.624 443.74 101.712 443.61 101.808L427.998 85.2567C430.419 83.0344 433.28 81.2825 436.435 80.1442L444.028 101.549L444.035 101.555ZM443.37 102.033C443.274 102.142 443.185 102.258 443.116 102.387L422.38 92.8778C423.704 90.0897 425.535 87.5812 427.765 85.4816L443.377 102.039L443.37 102.033ZM442.972 102.68C442.917 102.823 442.883 102.973 442.862 103.13L420.034 102.394C420.164 99.1151 420.933 95.9998 422.229 93.1641L442.965 102.673L442.972 102.68ZM443.041 104.194C443.096 104.309 443.157 104.418 443.233 104.514L443.096 104.759L426.626 120.097C424.465 117.779 422.744 115.046 421.605 112.033L443.041 104.194ZM442.595 105.68L432.258 124.616C430.261 123.444 428.444 121.999 426.852 120.342L442.595 105.68ZM443.72 104.991C443.788 105.039 443.864 105.08 443.939 105.121L435.262 126.116C434.425 125.768 433.616 125.373 432.827 124.937L443.72 104.984V104.991ZM444.241 105.243C444.365 105.284 444.488 105.305 444.612 105.325L443.871 128.011C440.942 127.902 438.15 127.282 435.564 126.246L444.241 105.25V105.243ZM444.845 128.025C444.632 128.025 444.419 128.025 444.2 128.018L444.941 105.332C445.078 105.325 445.215 105.305 445.346 105.271L452.939 126.675C450.401 127.548 447.678 128.025 444.838 128.025H444.845ZM445.661 105.162C445.771 105.114 445.874 105.052 445.97 104.991L456.863 124.944C455.71 125.578 454.503 126.123 453.255 126.573L445.661 105.162ZM447.493 106.402L461.692 121.46C460.395 122.653 458.968 123.71 457.432 124.61L447.493 106.402ZM446.868 105.264L446.457 104.514C446.498 104.453 446.539 104.391 446.573 104.33L467.31 113.839C465.986 116.627 464.154 119.136 461.925 121.235L446.861 105.264H446.868ZM446.717 104.03C446.772 103.887 446.807 103.737 446.827 103.58L469.656 104.316C469.525 107.595 468.757 110.71 467.46 113.546L446.724 104.037L446.717 104.03ZM435.07 126.566L431.174 135.994C429.987 135.503 428.828 134.944 427.696 134.323L432.587 125.359C433.389 125.803 434.219 126.205 435.07 126.559V126.566ZM435.372 126.689C438.006 127.752 440.866 128.379 443.85 128.495L443.514 138.666C439.323 138.516 435.262 137.643 431.469 136.116L435.365 126.689H435.372ZM444.179 128.509C444.399 128.509 444.618 128.516 444.838 128.516C447.733 128.516 450.511 128.032 453.097 127.139L456.506 136.75C452.802 138.025 448.871 138.686 444.831 138.686C444.502 138.686 444.173 138.686 443.843 138.672L444.173 128.502L444.179 128.509ZM453.412 127.03C454.688 126.573 455.923 126.014 457.096 125.366L461.987 134.33C460.327 135.237 458.605 136.014 456.821 136.641L453.412 127.03ZM478.168 90.9827L468.544 94.507C467.378 91.4326 465.622 88.6446 463.42 86.2792L470.904 79.3125C474.114 82.7413 476.563 86.7018 478.175 90.9895L478.168 90.9827ZM469.985 78.365C470.218 78.5968 470.451 78.8353 470.678 79.0739L463.194 86.0406C460.793 83.5252 457.871 81.5075 454.613 80.1442L458.509 70.7166C462.748 72.4685 466.644 75.0521 469.985 78.3718V78.365ZM458.2 70.5871L454.304 80.0146C451.67 78.958 448.81 78.3241 445.826 78.2082L446.155 68.0377C450.346 68.1876 454.407 69.0602 458.2 70.5871ZM444.838 68.0172C445.167 68.0172 445.496 68.0172 445.826 68.0308L445.49 78.2014C445.27 78.2014 445.051 78.1946 444.831 78.1946C441.936 78.1946 439.158 78.6786 436.565 79.5716L433.156 69.96C436.86 68.6852 440.791 68.024 444.831 68.024L444.838 68.0172ZM432.854 70.0622L436.264 79.6738C433.04 80.8326 430.117 82.6186 427.648 84.8886L420.638 77.4515C424.211 74.1454 428.361 71.6505 432.848 70.0554L432.854 70.0622ZM419.691 78.365C419.924 78.1332 420.164 77.9014 420.404 77.6765L427.415 85.1135C425.144 87.254 423.272 89.8171 421.92 92.6596L412.605 88.3856C414.334 84.7114 416.721 81.3234 419.691 78.365ZM412.461 88.6855L421.776 92.9596C420.452 95.8499 419.664 99.0333 419.533 102.373L409.299 102.039C409.47 97.3564 410.554 92.8369 412.461 88.6787V88.6855ZM409.271 103.355C409.271 103.028 409.271 102.701 409.285 102.373L419.52 102.701C419.52 102.919 419.513 103.137 419.513 103.355C419.513 106.354 420.041 109.231 421.015 111.896L411.391 115.421C409.999 111.603 409.271 107.534 409.271 103.355ZM411.501 115.727L421.125 112.203C422.291 115.278 424.047 118.066 426.249 120.431L418.765 127.398C415.555 123.969 413.106 120.008 411.494 115.721L411.501 115.727ZM419.684 128.345C419.451 128.113 419.218 127.875 418.991 127.636L426.475 120.67C428.101 122.367 429.96 123.846 432.004 125.039L427.106 134.003C424.424 132.469 421.927 130.567 419.684 128.338V128.345ZM480.157 167.637H409.498L427.209 135.196C428.368 135.83 429.562 136.403 430.783 136.907L429.534 139.927C429.253 139.838 428.951 139.79 428.636 139.79C426.996 139.79 425.672 141.113 425.672 142.735C425.672 144.358 427.003 145.68 428.636 145.68C430.268 145.68 431.599 144.358 431.599 142.735C431.599 141.536 430.879 140.499 429.836 140.043L431.085 137.03C434.988 138.598 439.165 139.497 443.473 139.647L443.37 142.735C441.765 142.769 440.475 144.078 440.475 145.68C440.475 147.282 441.806 148.625 443.439 148.625C445.071 148.625 446.402 147.302 446.402 145.68C446.402 144.139 445.215 142.878 443.699 142.742L443.802 139.647C444.145 139.654 444.481 139.661 444.824 139.661C448.974 139.661 453.014 138.979 456.821 137.664L457.885 140.67C456.876 141.14 456.177 142.156 456.177 143.342C456.177 144.971 457.507 146.287 459.14 146.287C460.772 146.287 462.103 144.964 462.103 143.342C462.103 141.72 460.772 140.397 459.14 140.397C458.804 140.397 458.488 140.452 458.186 140.554L457.123 137.561C458.955 136.914 460.725 136.116 462.433 135.182L480.144 167.623L480.157 167.637ZM462.549 134.01L457.651 125.046C459.222 124.126 460.683 123.042 462.014 121.822L469.024 129.259C467.028 131.099 464.861 132.694 462.549 134.017V134.01ZM469.971 128.345C469.738 128.577 469.498 128.809 469.258 129.034L462.247 121.597C464.518 119.456 466.39 116.893 467.742 114.051L477.057 118.325C475.328 121.999 472.941 125.387 469.971 128.345ZM477.201 118.025L467.886 113.751C469.21 110.86 469.999 107.677 470.129 104.337L480.363 104.664C480.192 109.347 479.108 113.866 477.201 118.025Z" fill="#FFB885"/>
<path d="M533.092 126.573H494.974V182.074H533.092V126.573Z" fill="#FFB885"/>
<path d="M565.627 148.148H527.509V181.754H565.627V148.148Z" fill="#FFB885"/>
<path d="M401.074 143.212H379.693V171.42H401.074V143.212Z" fill="#FFB885"/>
<path d="M540.988 73.7908H514.03V182.074H540.988V73.7908Z" fill="#FFB885"/>
<path d="M585.382 182.075H549.823V118.843H576.781L585.382 182.075Z" fill="#FFB885"/>
<path d="M600.953 167.637H569.811V182.068H600.953V167.637Z" fill="#FFB885"/>
<path d="M534.951 51.1663H534.019V80.594H534.951V51.1663Z" fill="#FFB885"/>
<path d="M538.086 57.4854H537.153V86.9131H538.086V57.4854Z" fill="#FFB885"/>
<path d="M532.105 61.5481H531.172V90.9759H532.105V61.5481Z" fill="#FFB885"/>
<path d="M563.939 113.737H551.215V123.696H563.939V113.737Z" fill="#FFB885"/>
<path d="M562.554 110.185H552.614V115.782H562.554V110.185Z" fill="#FFB885"/>
<path d="M571.437 116.654H568.995V120.676H571.437V116.654Z" fill="#FFB885"/>
<path d="M575.786 112.98H572.301V120.669H575.786V112.98Z" fill="#FFB885"/>
<path d="M411.906 98.2151H379.584V201.747H411.906V98.2151Z" fill="#FF7F22"/>
<path d="M414.32 98.8284H377.169V99.879H414.32V98.8284Z" fill="#FF7F22"/>
<path d="M413.312 113.375H378.171V114.419H413.312V113.375Z" fill="#FF7F22"/>
<path d="M413.312 127.459H378.171V128.503H413.312V127.459Z" fill="#FF7F22"/>
<path d="M413.312 141.542H378.171V142.586H413.312V141.542Z" fill="#FF7F22"/>
<path d="M413.312 155.625H378.171V156.669H413.312V155.625Z" fill="#FF7F22"/>
<path d="M413.312 169.709H378.171V170.753H413.312V169.709Z" fill="#FF7F22"/>
<path d="M413.312 183.792H378.171V184.836H413.312V183.792Z" fill="#FF7F22"/>
<path d="M415.548 95.9724H375.941V98.8354H415.548V95.9724Z" fill="#FF7F22"/>
<path opacity="0.29" d="M385.853 103.28H382.492V111.548H385.853V103.28Z" fill="#FF7F22"/>
<path d="M393.365 103.28H390.003V111.548H393.365V103.28Z" fill="#FF7F22"/>
<path d="M400.876 103.28H397.515V111.548H400.876V103.28Z" fill="#FF7F22"/>
<path d="M408.387 103.28H405.026V111.548H408.387V103.28Z" fill="#FF7F22"/>
<path d="M385.853 116.804H382.492V125.073H385.853V116.804Z" fill="#FF7F22"/>
<path opacity="0.29" d="M393.365 116.804H390.003V125.073H393.365V116.804Z" fill="#FF7F22"/>
<path d="M400.876 116.804H397.515V125.073H400.876V116.804Z" fill="#FF7F22"/>
<path d="M408.387 116.804H405.026V125.073H408.387V116.804Z" fill="#FF7F22"/>
<path d="M385.853 130.888H382.492V139.156H385.853V130.888Z" fill="#FF7F22"/>
<path d="M393.365 130.888H390.003V139.156H393.365V130.888Z" fill="#FF7F22"/>
<path d="M400.876 130.888H397.515V139.156H400.876V130.888Z" fill="#FF7F22"/>
<path opacity="0.29" d="M408.387 130.888H405.026V139.156H408.387V130.888Z" fill="#FF7F22"/>
<path d="M385.853 144.971H382.492V153.24H385.853V144.971Z" fill="#FF7F22"/>
<path opacity="0.29" d="M393.365 144.971H390.003V153.24H393.365V144.971Z" fill="#FF7F22"/>
<path opacity="0.29" d="M400.876 144.971H397.515V153.24H400.876V144.971Z" fill="#FF7F22"/>
<path d="M408.387 144.971H405.026V153.24H408.387V144.971Z" fill="#FF7F22"/>
<path opacity="0.29" d="M385.853 159.054H382.492V167.323H385.853V159.054Z" fill="#FF7F22"/>
<path d="M393.365 159.054H390.003V167.323H393.365V159.054Z" fill="#FF7F22"/>
<path d="M400.876 159.054H397.515V167.323H400.876V159.054Z" fill="#FF7F22"/>
<path d="M408.387 159.054H405.026V167.323H408.387V159.054Z" fill="#FF7F22"/>
<path d="M385.853 173.138H382.492V181.406H385.853V173.138Z" fill="#FF7F22"/>
<path d="M393.365 173.138H390.003V181.406H393.365V173.138Z" fill="#FF7F22"/>
<path opacity="0.29" d="M400.876 173.138H397.515V181.406H400.876V173.138Z" fill="#FF7F22"/>
<path d="M408.387 173.138H405.026V181.406H408.387V173.138Z" fill="#FF7F22"/>
<path d="M385.853 187.221H382.492V195.49H385.853V187.221Z" fill="#FF7F22"/>
<path opacity="0.29" d="M393.365 187.221H390.003V195.49H393.365V187.221Z" fill="#FF7F22"/>
<path d="M400.876 187.221H397.515V195.49H400.876V187.221Z" fill="#FF7F22"/>
<path opacity="0.29" d="M408.387 187.221H405.026V195.49H408.387V187.221Z" fill="#FF7F22"/>
<path d="M392.617 92.0256H381.621V97.404H392.617V92.0256Z" fill="#FF7F22"/>
<path d="M393.365 91.8687H380.88V92.7896H393.365V91.8687Z" fill="#FF7F22"/>
<path d="M333.261 201.748H290.204V103.376L333.261 92.9119V201.748Z" fill="#FF7F22"/>
<path d="M292.091 101.651H288.311V201.754H292.091V101.651Z" fill="#FF7F22"/>
<path d="M302.86 98.8289H299.074V201.748H302.86V98.8289Z" fill="#FF7F22"/>
<path d="M313.616 95.8977H309.836V201.748H313.616V95.8977Z" fill="#FF7F22"/>
<path d="M324.385 93.5117H320.605V201.748H324.385V93.5117Z" fill="#FF7F22"/>
<path d="M335.148 90.9692H331.368V201.748H335.148V90.9692Z" fill="#FF7F22"/>
<path opacity="0.29" d="M298.092 110.049H293.071V117.65H298.092V110.049Z" fill="#FF7F22"/>
<path opacity="0.29" d="M308.862 110.049H303.841V117.65H308.862V110.049Z" fill="#FF7F22"/>
<path d="M319.625 110.049H314.604V117.65H319.625V110.049Z" fill="#FF7F22"/>
<path opacity="0.29" d="M330.387 110.049H325.366V117.65H330.387V110.049Z" fill="#FF7F22"/>
<path d="M298.092 123.287H293.071V130.888H298.092V123.287Z" fill="#FF7F22"/>
<path d="M308.862 123.287H303.841V130.888H308.862V123.287Z" fill="#FF7F22"/>
<path opacity="0.29" d="M319.625 123.287H314.604V130.888H319.625V123.287Z" fill="#FF7F22"/>
<path opacity="0.29" d="M330.387 123.287H325.366V130.888H330.387V123.287Z" fill="#FF7F22"/>
<path opacity="0.29" d="M298.092 136.525H293.071V144.126H298.092V136.525Z" fill="#FF7F22"/>
<path opacity="0.29" d="M308.862 136.525H303.841V144.126H308.862V136.525Z" fill="#FF7F22"/>
<path opacity="0.29" d="M319.625 136.525H314.604V144.126H319.625V136.525Z" fill="#FF7F22"/>
<path d="M330.387 136.525H325.366V144.126H330.387V136.525Z" fill="#FF7F22"/>
<path opacity="0.29" d="M298.092 149.757H293.071V157.357H298.092V149.757Z" fill="#FF7F22"/>
<path d="M308.862 149.757H303.841V157.357H308.862V149.757Z" fill="#FF7F22"/>
<path opacity="0.29" d="M319.625 149.757H314.604V157.357H319.625V149.757Z" fill="#FF7F22"/>
<path opacity="0.29" d="M330.387 149.757H325.366V157.357H330.387V149.757Z" fill="#FF7F22"/>
<path opacity="0.29" d="M298.092 162.995H293.071V170.595H298.092V162.995Z" fill="#FF7F22"/>
<path opacity="0.29" d="M308.862 162.995H303.841V170.595H308.862V162.995Z" fill="#FF7F22"/>
<path d="M319.625 162.995H314.604V170.595H319.625V162.995Z" fill="#FF7F22"/>
<path opacity="0.29" d="M330.387 162.995H325.366V170.595H330.387V162.995Z" fill="#FF7F22"/>
<path d="M298.092 176.233H293.071V183.833H298.092V176.233Z" fill="#FF7F22"/>
<path d="M308.862 176.233H303.841V183.833H308.862V176.233Z" fill="#FF7F22"/>
<path opacity="0.29" d="M319.625 176.233H314.604V183.833H319.625V176.233Z" fill="#FF7F22"/>
<path opacity="0.29" d="M330.387 176.233H325.366V183.833H330.387V176.233Z" fill="#FF7F22"/>
<path opacity="0.29" d="M298.092 189.471H293.071V197.072H298.092V189.471Z" fill="#FF7F22"/>
<path d="M308.862 189.471H303.841V197.072H308.862V189.471Z" fill="#FF7F22"/>
<path opacity="0.29" d="M319.625 189.471H314.604V197.072H319.625V189.471Z" fill="#FF7F22"/>
<path d="M330.387 189.471H325.366V197.072H330.387V189.471Z" fill="#FF7F22"/>
<path d="M167.385 108.093V109.115H166.356V112.026H184.376V201.747H154.812V116.702V112.026V109.115H153.742V108.093H167.385Z" fill="#FF7F22"/>
<path d="M243.073 148.85H217.748V201.754H243.073V148.85Z" fill="#FF7F22"/>
<path d="M127.964 136.723H107.378V201.754H127.964V136.723Z" fill="#FF7F22"/>
<path d="M146.313 150.268H123.882V201.747H146.313V150.268Z" fill="#FF7F22"/>
<path d="M123.889 134.112H114.787V141.897H123.889V134.112Z" fill="#FF7F22"/>
<path d="M149.338 149.422H125.426V151.324H149.338V149.422Z" fill="#FF7F22"/>
<path d="M169.052 172.347H143.905V201.748H169.052V172.347Z" fill="#FF7F22"/>
<path d="M83.082 148.434H62.627V201.747H83.082V148.434Z" fill="#FF7F22"/>
<path d="M71.7848 175.006H44.875V201.748H71.7848V175.006Z" fill="#FF7F22"/>
<path d="M32.0749 170.629H15.2417V201.747H32.0749V170.629Z" fill="#FF7F22"/>
<path d="M68.5883 192H28.8032V201.748H68.5883V192Z" fill="#FF7F22"/>
<path d="M20.3933 188.85H0V201.748H20.3933V188.85Z" fill="#FF7F22"/>
<path d="M114.78 182.074H83.082V201.747H114.78V182.074Z" fill="#FF7F22"/>
<path d="M225.458 193.274H176.076V201.748H225.458V193.274Z" fill="#FF7F22"/>
<path d="M313.005 193.274H263.624V201.748H313.005V193.274Z" fill="#FF7F22"/>
<path d="M223.53 168.386H204.763L196.826 197.507H223.53V168.386Z" fill="#FF7F22"/>
<path d="M232.729 126.014H232.208V158.318H232.729V126.014Z" fill="#FF7F22"/>
<path d="M235.52 136.948H234.821V156.014H235.52V136.948Z" fill="#FF7F22"/>
<path d="M240.576 140.322H231.083V149.756H240.576V140.322Z" fill="#FF7F22"/>
<path d="M242.051 139.593H229.478V140.439H242.051V139.593Z" fill="#FF7F22"/>
<path d="M269.146 174.46H238.463V201.748H269.146V174.46Z" fill="#FF7F22"/>
<path d="M282.988 144.426H263.274V197.071H282.988V144.426Z" fill="#FF7F22"/>
<path d="M371.757 154.324H340.265V201.748H371.757V154.324Z" fill="#FF7F22"/>
<path d="M366.297 184.276H330.387V201.754H366.297V184.276Z" fill="#FF7F22"/>
<path d="M393.364 195.497H370.015V201.754H393.364V195.497Z" fill="#FF7F22"/>
<path d="M443.939 184.276H405.979V201.754H443.939V184.276Z" fill="#FF7F22"/>
<path d="M421.104 201.748H468.338V138.523H421.104V201.748Z" fill="#FF7F22"/>
<path d="M419.883 138.523H471.096V136.096H419.883V138.523Z" fill="#FF7F22"/>
<path d="M445.489 142.333H466.246V129.511H445.489V142.333Z" fill="#FF7F22"/>
<path d="M435.221 137.309H438.705V129.511H435.221V137.309Z" fill="#FF7F22"/>
<path d="M427.901 137.309H431.736V129.511H427.901V137.309Z" fill="#FF7F22"/>
<path d="M500.811 201.747H538.209V109.408H500.811V201.747Z" fill="#FF7F22"/>
<path d="M499.755 110.431H539.272V107.82H499.755V110.431Z" fill="#FF7F22"/>
<path d="M502.073 116.886H536.947V104.48H502.073V116.886Z" fill="#FF7F22"/>
<path d="M520.471 112.953H534.279V99.4014H520.471V112.953Z" fill="#FF7F22"/>
<path d="M526.287 103.219H534.278V96.0886H528.551L526.287 103.219Z" fill="#FF7F22"/>
<path d="M531.062 106.054H530.287V90.1646H531.062V106.054Z" fill="#FF7F22"/>
<path d="M529.978 89.34C529.978 89.7967 530.286 90.1648 530.67 90.1648C531.054 90.1648 531.363 89.7967 531.363 89.34C531.363 88.8832 531.054 88.5151 530.67 88.5151C530.286 88.5151 529.978 88.8832 529.978 89.34Z" fill="#FF7F22"/>
<path d="M549.822 163.628H533.085V201.748H549.822V163.628Z" fill="#FF7F22"/>
<path d="M504.502 145.039H485.418V201.748H504.502V145.039Z" fill="#FF7F22"/>
<path d="M494.974 201.748H468.092V171.42L490.776 181.407L494.974 201.748Z" fill="#FF7F22"/>
<path d="M585.382 185.278H544.328V201.748H585.382V185.278Z" fill="#FF7F22"/>
<path d="M594.066 135.993H570.216V201.747H594.066V135.993Z" fill="#FF7F22"/>
<path d="M628 189.471H588.489V201.748H628V189.471Z" fill="#FF7F22"/>
<path d="M595.157 134.787H568.995V136.941H595.157V134.787Z" fill="#FF7F22"/>
<path d="M590.869 125.509H590.348V138.761H590.869V125.509Z" fill="#FF7F22"/>
<path d="M587.385 127.186H586.864V137.814H587.385V127.186Z" fill="#FF7F22"/>
<path d="M602.894 160.765H592.262V190.888H607.429L602.894 160.765Z" fill="#FF7F22"/>
</svg>
